<?xml version="1.0" encoding="UTF-8"?>
<svg xmlns="http://www.w3.org/2000/svg" version="1.1" viewBox="0 0 120.1 104.6">
  <defs>
    <style>
      .cls-1 { fill: #065aa7; }
      @media (prefers-color-scheme: dark) {
        .cls-1 { fill: #ffffff; }
      }
    </style>
  </defs>
  <g>
    <g id="Layer_1">
      <g>
        <path class="cls-1" d="M119.7,43.2c-1.3-7.4-7.2-12.6-14.6-13.1-13.1-1.1-24.4,5.9-37,8.2-1,.2-2.4-2-3.6-3.2,5.9-4.4,5.1-13.1-1.7-16.9-.5-.5-.3-5.5,0-5.8.6-.5,4.9.4,5.5-.2.6-.5.5-5.7,0-6.2-.4-.5-5.3,0-5.6-.3-.3-.3.1-5-.3-5.4C62.2,0,60.8,0,60,0c-.8,0-2.1,0-2.4.3-.5.4,0,5.1-.3,5.4-.3.3-5.2-.2-5.6.3-.4.5-.5,5.7.1,6.2.6.5,5-.3,5.5.2.3.2.4,5.2,0,5.8-6.8,3.8-7.6,12.4-1.7,16.9-1.2,1.2-2.6,3.4-3.6,3.2-12.7-2.2-24-9.2-37-8.2-7.3.6-13.3,5.7-14.6,13.1-2.3,13.3,7.3,23.6,11.9,34.9,1.5,3.6,2.8,8.4,2.5,12.5,0,0,38,0,44.7,0h0s.2,0,.5,0c.3,0,.5,0,.5,0h0c6.7,0,44.7,0,44.7,0-.2-4.1,1.1-8.9,2.5-12.5,4.6-11.3,14.2-21.6,11.9-34.9ZM54.6,72.7c-1.2,6.7-4.9,10.9-8,11-2,0-3.7-.8-5.1-2.1-2-1.8-3.7-4.7-3.2-6.4.5-.6,5.9.3,6.3-.3.4-.5-.7-4.8-1.3-5.4-.6-.6-5.6.2-6.2-.4-.7-.5-1.3-5.8-2-6.2,0,0-5.2-.8-5.6,0-.4.7,1.8,5.2,1.4,5.9-.4.8-7.3-.7-7.4.1-.1.8.4,4.7,1.1,5.2.7.6,7.1.6,7.1.6,1.3,1,1.7,3.1,1.7,5.2,0,2.7-2.1,4.1-5.5,3.2-6.3-1.8-14-15.4-18.7-24.8-3.4-6.9-5.4-18.2,3.5-21.6,5.4-2.1,11.1-.9,16.9.8,6.1,1.8,14.2,4.3,18.9,7.2,1.2.7-1.4.1,2.8,9.5,2,4.3,3.9,13.6,3.1,18.3ZM110.7,58.5c-4.6,9.4-12.4,23-18.6,24.8-3.4.9-5.5-.5-5.5-3.2,0-2.1.4-4.2,1.7-5.2,0,0,6.5,0,7.1-.6.7-.6,1.2-4.5,1.1-5.2-.1-.8-7.1.6-7.4-.1-.4-.8,1.8-5.2,1.4-5.9-.4-.7-5.6,0-5.6,0-.7.3-1.3,5.6-2,6.2-.7.5-5.6-.2-6.2.4-.6.6-1.7,4.8-1.3,5.4.4.5,5.9-.3,6.3.3.5,1.7-1.1,4.7-3.2,6.4-1.5,1.3-3.1,2.1-5.1,2.1-3.1,0-6.8-4.3-8-11-.8-4.7,1.1-13.9,3.1-18.3,4.2-9.3,1.7-8.8,2.8-9.5,4.8-3,12.8-5.4,18.9-7.2,5.8-1.7,11.5-2.9,16.9-.8,8.9,3.4,6.9,14.7,3.5,21.6Z"/>
        <rect class="cls-1" x="13.8" y="96.8" width="92.5" height="7.9"/>
      </g>
    </g>
  </g>
</svg>
